<svg xmlns="http://www.w3.org/2000/svg" width="63.857" height="57.368" viewBox="0 0 63.857 57.368">
  <g id="Group_192" data-name="Group 192" transform="translate(4215.5 1608.5)">
    <g id="Group_191" data-name="Group 191" transform="translate(99 -33)">
      <g id="Group_188" data-name="Group 188" transform="translate(-180 102)">
        <g id="Group_187" data-name="Group 187" transform="translate(-4128.622 -1649.793)">
          <path id="Path_2053" data-name="Path 2053" d="M-4128.622-1524.83h57.979" transform="translate(4128.622 1552.991)" fill="none" stroke="#707070" stroke-width="3"/>
          <path id="Path_2054" data-name="Path 2054" d="M-4109.673-1546.528v7.482" transform="translate(4116.116 1567.312)" fill="none" stroke="#707070" stroke-width="3"/>
          <path id="Path_2055" data-name="Path 2055" d="M-4109.673-1546.528v18.279" transform="translate(4131.416 1556.514)" fill="none" stroke="#707070" stroke-width="3"/>
          <path id="Path_2056" data-name="Path 2056" d="M-4109.673-1546.528v16.677" transform="translate(4146.716 1558.116)" fill="none" stroke="#707070" stroke-width="3"/>
          <path id="Path_2057" data-name="Path 2057" d="M-4109.673-1546.528v28.266" transform="translate(4162.017 1546.528)" fill="none" stroke="#707070" stroke-width="3"/>
        </g>
        <path id="Path_2058" data-name="Path 2058" d="M-4123.866-1616.182l24.208-18.442,7.776,9.519,19.073-19.929" transform="translate(-3.139 -18.508)" fill="none" stroke="#707070" stroke-width="2.5"/>
        <path id="Path_2059" data-name="Path 2059" d="M-3996.412-1649.251h8.132l-1.147,7.741" transform="translate(-86.918 -14.684)" fill="none" stroke="#707070" stroke-width="2.5"/>
      </g>
    </g>
    <g id="Icon_feather-clock" data-name="Icon feather-clock" transform="translate(-4217 -1610)">
      <path id="Path_2060" data-name="Path 2060" d="M26.432,14.716A11.716,11.716,0,1,1,14.716,3,11.716,11.716,0,0,1,26.432,14.716Z" fill="none" stroke="#707070" stroke-linecap="round" stroke-linejoin="round" stroke-width="3"/>
      <path id="Path_2061" data-name="Path 2061" d="M18,9v7.03l4.686,2.343" transform="translate(-3.284 -1.314)" fill="none" stroke="#707070" stroke-linecap="round" stroke-linejoin="round" stroke-width="3"/>
    </g>
  </g>
</svg>
