<svg xmlns="http://www.w3.org/2000/svg" width="86.622" height="67.868" viewBox="0 0 86.622 67.868">
  <g id="Group_193" data-name="Group 193" transform="translate(4420.622 1619)">
    <g id="Group_189" data-name="Group 189" transform="translate(-112 -33)">
      <g id="Group_188" data-name="Group 188" transform="translate(-180 102)">
        <g id="Group_187" data-name="Group 187" transform="translate(-4128.622 -1649.793)">
          <path id="Path_2053" data-name="Path 2053" d="M-4128.622-1524.83h57.979" transform="translate(4128.622 1552.991)" fill="none" stroke="#707070" stroke-width="3"/>
          <path id="Path_2054" data-name="Path 2054" d="M-4109.673-1546.528v7.482" transform="translate(4116.116 1567.312)" fill="none" stroke="#707070" stroke-width="3"/>
          <path id="Path_2055" data-name="Path 2055" d="M-4109.673-1546.528v18.279" transform="translate(4131.416 1556.514)" fill="none" stroke="#707070" stroke-width="3"/>
          <path id="Path_2056" data-name="Path 2056" d="M-4109.673-1546.528v16.677" transform="translate(4146.716 1558.116)" fill="none" stroke="#707070" stroke-width="3"/>
          <path id="Path_2057" data-name="Path 2057" d="M-4109.673-1546.528v28.266" transform="translate(4162.017 1546.528)" fill="none" stroke="#707070" stroke-width="3"/>
        </g>
        <path id="Path_2058" data-name="Path 2058" d="M-4123.866-1616.182l24.208-18.442,7.776,9.519,19.073-19.929" transform="translate(-3.139 -18.508)" fill="none" stroke="#707070" stroke-width="2.5"/>
        <path id="Path_2059" data-name="Path 2059" d="M-3996.412-1649.251h8.132l-1.147,7.741" transform="translate(-86.918 -14.684)" fill="none" stroke="#707070" stroke-width="2.5"/>
      </g>
      <g id="metrics" transform="translate(-4281 -1577)">
        <path id="Path_13" data-name="Path 13" d="M2.5,13.732V.5A39.7,39.7,0,0,1,42.2,40.2H28.964" transform="translate(5.262 -0.5)" fill="none" stroke="#707070" stroke-width="3"/>
      </g>
    </g>
    <text id="mon" transform="translate(-4387 -1614)" fill="#575757" font-size="5" font-family="Roboto-Regular, Roboto"><tspan x="0" y="0">mon</tspan></text>
    <text id="tue" transform="translate(-4372 -1612)" fill="#575757" font-size="5" font-family="Roboto-Regular, Roboto"><tspan x="0" y="0">tue</tspan></text>
    <text id="wed" transform="translate(-4362 -1607)" fill="#575757" font-size="5" font-family="Roboto-Regular, Roboto"><tspan x="0" y="0">wed</tspan></text>
    <text id="thu" transform="translate(-4353 -1598)" fill="#575757" font-size="5" font-family="Roboto-Regular, Roboto"><tspan x="0" y="0">thu</tspan></text>
    <text id="fri" transform="translate(-4346 -1589)" fill="#575757" font-size="5" font-family="Roboto-Regular, Roboto"><tspan x="0" y="0">fri</tspan></text>
    <text id="sat" transform="translate(-4344 -1579)" fill="#575757" font-size="5" font-family="Roboto-Regular, Roboto"><tspan x="0" y="0">sat</tspan></text>
    <text id="sun" transform="translate(-4343 -1569)" fill="#575757" font-size="5" font-family="Roboto-Regular, Roboto"><tspan x="0" y="0">sun</tspan></text>
  </g>
</svg>
